<svg xmlns="http://www.w3.org/2000/svg" height="48" viewBox="0 96 960 960" width="48"><path d="M355 680h25V472h-86v25h61v183Zm151.119 0h88.762q11.619 0 19.869-8.25t8.25-19.513V499.763q0-11.263-8.25-19.513-8.25-8.25-19.869-8.25h-88.762q-12.619 0-20.369 8.25T478 499.763v152.474q0 11.263 7.75 19.513 7.75 8.25 20.369 8.25ZM503 653v-64h95v64h-95Zm0-90v-64h95v64h-95ZM225.764 884q-22.008 0-37.886-15.878Q172 852.244 172 830.236V321.764q0-22.008 15.878-37.886Q203.756 268 225.764 268h508.472q22.008 0 37.886 15.878Q788 299.756 788 321.764v508.472q0 22.008-15.878 37.886Q756.244 884 734.236 884H225.764Zm.236-22h508q12 0 22-10t10-22V322q0-12-10-22t-22-10H226q-12 0-22 10t-10 22v508q0 12 10 22t22 10Zm-32-572v572-572Z"/></svg>