<svg xmlns="http://www.w3.org/2000/svg" height="48" viewBox="0 96 960 960" width="48"><path d="m274 938 44-96.669Q299 828 282.5 814.5T250 783q-6 4-13.288 5.5t-13.526 1.5Q196 790 177 771.058q-19-18.941-19-46.062 0-14.998 7-28.997t19-22.931q-7-22.858-11.5-46.713T168 576.25q0-26.25 4.5-50.25t11.5-48q-12-9-19-22.189-7-13.188-7-29.811 0-25.946 19.065-45.473Q196.129 361 223.347 361q6.059 0 13.198 2t13.189 5q32.766-35.5 73.725-60.55 40.958-25.05 91.588-35.307Q418 247.5 437.25 230.75T480 214q22.5 0 42.225 15.5T545 270q51.041 10.102 93.37 34.478Q680.699 328.854 714 366q5-3 10.786-3.5 5.787-.5 12.016-.5Q764 362 783 380.97t19 46.325q0 15.519-7.432 29.61-7.432 14.092-19.568 22.028 8 22.859 12 47.042T791 576q0 26.5-4 50.83T775 674q12 9 18.5 22.992t6.5 27.981q0 27.13-18.965 46.079Q762.069 790 735.014 790q-6.014 0-12.514-1.5Q716 787 710 785q-16 18-32 31.5T642 842l42 96h-25l-37-83q-19 9-38 15.5T545 882q-3.075 25-22.912 40Q502.25 937 480 937q-23.5 0-42.75-16.25T415 879.812q-21-4.968-39.5-11.421Q357 861.938 339 852l-40 86h-25Zm54-123 87-190q-10-9.5-14-22.5t-4-26.259q0-34.684 24.779-58.962Q446.557 493 481 493t57.721 24.279Q562 541.557 562 576.241q0 13.259-4.75 26.259T544 625.769L629.873 817q15.817-8.789 30.024-21.618 14.206-12.829 27.103-26.593-8-8.789-12.5-19.947-4.5-11.159-4.5-24.309Q670 695 694.75 674.5T749 662q7-20.247 11-41.488 4-21.24 4-44.5 0-24.259-4-45.012t-10-41q-29 9-53.5-11.705-24.5-20.706-24.5-51.211 0-11.861 5-22.937T689 384q-29-32-65.888-52.946-36.888-20.946-80.32-32.054-6.071 19-23.027 32-16.956 13-39.765 13-23 0-40.5-13t-22.317-32Q372.5 310 336.5 330.5 300.5 351 271 384q8 9 12.5 20t4.5 22q0 34-26.5 52.5T208 490.018q-6 19.248-9.5 40.49-3.5 21.241-3.5 45.501 0 23.26 3.5 44.502Q202 641.752 208 662q27.5-8 53.75 11.264Q288 692.529 288 724.897q0 13.103-4.5 23.603Q279 759 271 767q13 14 27.173 25.5Q312.346 804 328 815Zm19 11.997Q363 835 380.171 841.5 397.343 848 417 852q6-19 23-32t40-13q23 0 39.75 13T543 852q17.727-4 34.989-9.5Q595.25 837 610 828.923L528.032 643q-11.032 7-22.809 11.5-11.776 4.5-26.074 4.5-13.319 0-26.106-4.5-12.788-4.5-24.246-13.5L347 826.997ZM479.605 637q24.558 0 42.476-17.5Q540 602 540 576.395q0-25.558-17.919-43.476Q504.163 515 479.605 515 454 515 436.5 532.919 419 550.837 419 576.395 419 602 436.5 619.5 454 637 479.605 637Zm.395-61Z"/></svg>