<svg xmlns="http://www.w3.org/2000/svg" height="48" viewBox="0 96 960 960" width="48"><path d="M384 704q-13.6 0-22.8-9.197-9.2-9.197-9.2-22.793v-63.98q13.6 0 22.8-9.197 9.2-9.197 9.2-22.793 0-13.595-9.2-22.792-9.2-9.198-22.8-9.198v-63.979q0-13.596 9.2-22.834Q370.4 448 384 448h192q13.6 0 22.8 9.197 9.2 9.197 9.2 22.793v63.98q-13.6 0-22.8 9.197-9.2 9.197-9.2 22.793 0 13.595 9.2 22.792 9.2 9.197 22.8 9.197v63.98q0 13.596-9.2 22.834Q589.6 704 576 704H384Zm96-48.5q6.5 0 11.5-4.6t5-10.9q0-6.3-5-11.4-5-5.1-11.5-5.1-6.3 0-10.9 5.1-4.6 5.1-4.6 11.4 0 6.3 4.6 10.9 4.6 4.6 10.9 4.6Zm0-64q6.5 0 11.5-4.6t5-10.9q0-6.3-5-11.4-5-5.1-11.5-5.1-6.3 0-10.9 5.1-4.6 5.1-4.6 11.4 0 6.3 4.6 10.9 4.6 4.6 10.9 4.6Zm0-64q6.5 0 11.5-4.6t5-10.9q0-6.3-5-11.4-5-5.1-11.5-5.1-6.3 0-10.9 5.1-4.6 5.1-4.6 11.4 0 6.3 4.6 10.9 4.6 4.6 10.9 4.6ZM305.783 964q-22.027 0-37.905-15.878T252 910.248V241.752q0-21.996 15.878-37.874Q283.756 188 305.783 188h348.434q22.027 0 37.905 15.878T708 241.752v668.496q0 21.996-15.878 37.874Q676.244 964 654.217 964H305.783ZM274 879v31q0 12 10 22t22 10h348q12 0 22-10t10-22v-31H274Zm0-22h412V295H274v562Zm0-584h412v-31q0-12-10-22t-22-10H306q-12 0-22 10t-10 22v31Zm0 0v-63 63Zm0 606v63-63Z"/></svg>