<svg xmlns="http://www.w3.org/2000/svg" height="48" viewBox="0 96 960 960" width="48"><path d="M225.764 924q-22.008 0-37.886-15.878Q172 892.244 172 870.236V355.764q0-22.008 15.878-37.886Q203.756 302 226 302h88v-86h27v86h282v-86h24v86h87q22.244 0 38.122 15.878T788 355.764v514.472q0 22.008-15.878 37.886Q756.244 924 734.236 924H225.764Zm.236-22h508q12 0 22-10t10-22V525H194v345q0 12 10 22t22 10Zm-32-399h572V356q0-12-10-22t-22-10H226q-12 0-22 10t-10 22v147Zm0 0V324v179Zm286.053 161q-11.265 0-19.659-8.341Q452 647.318 452 636.053q0-11.266 8.341-19.659Q468.682 608 479.947 608q11.265 0 19.659 8.341Q508 624.682 508 635.947q0 11.266-8.341 19.659Q491.318 664 480.053 664Zm-160 0q-11.265 0-19.659-8.341Q292 647.318 292 636.053q0-11.266 8.341-19.659Q308.682 608 319.947 608q11.265 0 19.659 8.341Q348 624.682 348 635.947q0 11.266-8.341 19.659Q331.318 664 320.053 664Zm320 0q-11.266 0-19.659-8.341Q612 647.318 612 636.053q0-11.266 8.341-19.659Q628.682 608 639.947 608q11.266 0 19.659 8.341Q668 624.682 668 635.947q0 11.266-8.341 19.659Q651.318 664 640.053 664Zm-160 152q-11.265 0-19.659-8.341Q452 799.318 452 788.053q0-11.266 8.341-19.659Q468.682 760 479.947 760q11.265 0 19.659 8.341Q508 776.682 508 787.947q0 11.266-8.341 19.659Q491.318 816 480.053 816Zm-160 0q-11.265 0-19.659-8.341Q292 799.318 292 788.053q0-11.266 8.341-19.659Q308.682 760 319.947 760q11.265 0 19.659 8.341Q348 776.682 348 787.947q0 11.266-8.341 19.659Q331.318 816 320.053 816Zm320 0q-11.266 0-19.659-8.341Q612 799.318 612 788.053q0-11.266 8.341-19.659Q628.682 760 639.947 760q11.266 0 19.659 8.341Q668 776.682 668 787.947q0 11.266-8.341 19.659Q651.318 816 640.053 816Z"/></svg>