<svg xmlns="http://www.w3.org/2000/svg" height="48" viewBox="0 96 960 960" width="48"><path d="m163 890 132-368 237 236-369 132Zm37-37 291-103-188-189-103 292Zm316-235-18-18 217-217q27-26 67-26.5t67 26.5l10 10-16 18-10-11q-20.5-20.5-50-20.5T733 400L516 618ZM392 495l-18-17 26-26q27.5-27.5 27-63.5T400 326l-25-25 18-17 24 24q34.5 33.5 34 81t-34 81l-25 25Zm62 61-17-17 134-135q21-20 21-50.5T571 302l-51-51 17-17 52 51q27 28 27.5 68.5T589 421L454 556Zm124 124-18-17 17-17q34-34 82-34.5t82 33.5l18 18-17 18-19-19q-26.5-26.5-63.5-26.5T595 662l-17 18ZM200 853Z"/></svg>