<svg xmlns="http://www.w3.org/2000/svg" height="48" viewBox="0 96 960 960" width="48"><path d="M469.5 314.5v-125h22v125h-22ZM672 400l-15-15 87-91 17.5 16.5L672 400Zm69.5 186.5v-22h125v22h-125Zm-272 375v-124h22v124h-22Zm-179-563-92.5-87 18.5-16L305 384l-14.5 14.5ZM745 858l-87.5-91.5 15-14L760 840l-15 18ZM94.5 586.5v-22h125v22h-125ZM215 858l-15-18 87.5-87.5 7.5 8.373 9 8.127-89 89Zm265.382-94.5q-78.382 0-133.132-54.662t-54.75-132.75q0-78.088 54.662-133.338t132.75-55.25q78.088 0 133.338 54.868 55.25 54.867 55.25 133.25 0 78.382-54.868 133.132-54.867 54.75-133.25 54.75Zm-.457-22q69.075 0 117.825-48.175t48.75-117.25q0-69.075-48.529-117.825-48.528-48.75-117.75-48.75-69.221 0-117.471 48.529-48.25 48.528-48.25 117.75 0 69.221 48.175 117.471t117.25 48.25ZM480 576Z"/></svg>