<svg xmlns="http://www.w3.org/2000/svg" height="48" viewBox="0 96 960 960" width="48"><path d="M154 844q-9 0-15.5-6.5T132 822V706q37-20 59.5-54.084t22.5-75.75q0-41.666-22.294-76.416Q169.413 465 132 446V330q0-9 6.5-15.5T154 308h652q9 0 15.5 6.5T828 330v116q-37 19-59.5 53.662Q746 534.325 746 575.75q0 41.838 22.294 76.044Q790.588 686 828 706v116q0 9-6.5 15.5T806 844H154Zm0-22h652V718q-37.5-23-59.75-60.871Q724 619.259 724 575.865q0-43.765 22.5-81.315T806 434V330H154v104q38 23 60 60.428t22 81.342q0 43.73-21.75 81.48Q192.5 695 154 718v104Zm326.035-83q4.965 0 7.965-3.035t3-8q0-4.965-3.035-7.965t-8-3Q475 717 472 720.035t-3 8q0 4.965 3.035 7.965t8 3Zm0-152q4.965 0 7.965-3.035t3-8q0-4.965-3.035-7.965t-8-3Q475 565 472 568.035t-3 8q0 4.965 3.035 7.965t8 3Zm0-152q4.965 0 7.965-3.035t3-8q0-4.965-3.035-7.965t-8-3Q475 413 472 416.035t-3 8q0 4.965 3.035 7.965t8 3Zm.465 140.5Z"/></svg>