<svg xmlns="http://www.w3.org/2000/svg" height="48" viewBox="0 96 960 960" width="48"><path d="M335 842h25V583.586Q390 580 410.5 559t20.5-51.481V365q0-6-4.3-10.5T416 350q-6 0-10.5 4.5t-4.5 10.13V506.5h-37V364.63q0-5.63-4.555-10.13-4.554-4.5-11.127-4.5t-10.627 4.5q-4.055 4.5-4.055 10.13V506.5h-39.272V364.63q0-5.63-3.955-10.13-3.954-4.5-11.227-4.5-6.073 0-10.627 4.5Q264 359 264 365v142.519Q264 538 284.5 559t50.5 24.5V842Zm244 0h25V589.174Q637 581.5 656.5 549t19.5-79.404q0-52.239-23.996-85.917Q628.007 350 592.399 350q-35.609 0-59.004 33.75Q510 417.5 510 469.328q0 47.594 18.529 79.66 18.528 32.065 50.471 40.438V842Zm-393.22 82q-22.024 0-37.902-15.878T132 870.22V281.78q0-22.024 15.878-37.902T185.78 228h588.44q22.024 0 37.902 15.878T828 281.78v588.44q0 22.024-15.878 37.902T774.22 924H185.78Zm.22-22h588q12 0 22-10t10-22V282q0-12-10-22t-22-10H186q-12 0-22 10t-10 22v588q0 12 10 22t22 10Zm-32 0V250v652Z"/></svg>