<svg xmlns="http://www.w3.org/2000/svg" height="48" viewBox="0 96 960 960" width="48"><path d="M480.5 641ZM197 802l-50.943-190.764Q144 602 147.75 593.5t10.364-10.625L212 564V382q0-22.469 15.766-38.234Q243.531 328 266 328h149V208h130v120h149q22.219 0 38.109 15.891Q748 359.781 748 382v181.983l53.856 18.998q7.824 1.769 13.484 9.784t2.603 18.432L763 802q-32-15.5-57.268-38.25T640 696q-36.188 45-72.813 76.5T480 804q-50.562 0-87.187-31.5T320 696q-39.464 45-65.232 67.75T197 802Zm-91 162v-22h53.623q42.869 0 83.873-13.25Q284.5 915.5 320 891q35.556 25 76.882 37 41.325 12 83.146 12t83.147-12Q604.5 916 640 891q35.5 24.5 76.665 37.75Q757.831 942 800 942h54v22h-53.811q-42.517 0-82.353-10Q678 944 640 924q-38 20-79 30t-81 10q-40 0-81-10t-79-30q-38 20-77.836 30t-82.353 10H106Zm128-408 246-80 246 80V382q0-14-9-23t-23-9H266q-14 0-23 9t-9 23v174Zm245.887 226q47.887 0 82.212-33.959Q596.425 714.082 640 661q39.726 48 61.307 69.435Q722.887 751.87 751 767l46-163-317-104-317 104 45.784 163q28.202-15 49.845-36.005 21.643-21.004 61.5-70.018Q364 713 398 747.5q34 34.5 81.887 34.5Z"/></svg>