<svg xmlns="http://www.w3.org/2000/svg" height="48" viewBox="0 96 960 960" width="48"><path d="M260 856v-12l60-40q-45 0-76.5-31.5T212 696V335.613q0-57.113 62-82.363T480.266 228q144.275 0 206.005 25Q748 278 748 336v360q0 45-31.5 76.5T640 804l60 40v12H260Zm-26-304h236V346H234v206Zm406 22H234h492-86Zm-148-22h234V346H492v206ZM338.559 717Q354 717 365.5 706.118q11.5-10.883 11.5-27Q377 663 365.441 651.5t-27-11.5Q323 640 311.5 651.559 300 663.118 300 679.235q0 16.118 11.559 26.941 11.559 10.824 27 10.824Zm283 0Q637 717 648.5 706.118q11.5-10.883 11.5-27Q660 663 648.441 651.5t-27-11.5Q606 640 594.5 651.559 583 663.118 583 679.235q0 16.118 11.559 26.941 11.559 10.824 27 10.824ZM320 783h320q36 0 61-25.5t25-61.5V574H234v121.53q0 36.47 25 61.97t61 25.5Zm160-533q-126.5 0-183 17.75T232 324h496q-9-38.5-66.75-56.25T480 250Zm0 74h248-496 248Z"/></svg>