<svg xmlns="http://www.w3.org/2000/svg" height="48" viewBox="0 96 960 960" width="48"><path d="M225.764 924q-22.008 0-37.886-15.878Q172 892.244 172 870.236V355.764q0-22.008 15.878-37.886Q203.756 302 226 302h88v-86h27v86h282v-86h24v86h87q22.244 0 38.122 15.878T788 356v217.5h-22V525H194v345q0 12 10 22t22 10h168v22H225.764ZM790.5 706.5l-45-45 29-29q3.511-2 8.256-2 4.744 0 7.744 2l29 29q3 4.511 3 9.256 0 4.744-3 6.744l-29 29ZM508 945v-45l205.5-205.5 45 45L553 945h-45ZM194 503h572V356q0-12-10-22t-22-10H226q-12 0-22 10t-10 22v147Zm0 0V324v179Z"/></svg>