<svg xmlns="http://www.w3.org/2000/svg" height="48" viewBox="0 96 960 960" width="48"><path d="m347.5 806 59-114.5-35 .5v-91.5l-59.5 114 35.5.5v91ZM234 524h249V322q0-12-10-22t-22-10H266q-12 0-22 10t-10 22v202Zm0 338h249V546H234v316Zm-22 22V321.843q0-22.087 15.878-37.965Q243.756 268 265.824 268h185.352q22.068 0 37.946 15.878Q505 299.756 505 321.816V552h40q21.786 0 37.893 16.507T599 606v194.411Q599 825 618.583 841.5q19.584 16.5 45.831 16.5Q691 858 711 841.5t20-41.13V447h-17q-12.225 0-19.362-7.638-7.138-7.637-7.138-19.862V359h15v-37H727v37h32v-37h25.5v37h15v60.5q0 12.225-7.638 19.862Q784.225 447 772 447h-16v353.345Q756 836 728.338 860t-64.541 24q-36.495 0-63.146-24Q574 836 574 800.5V606q0-12.5-8.25-20.75T545 577h-40v307H212Zm271-22H234h249Z"/></svg>