<svg xmlns="http://www.w3.org/2000/svg" height="48" viewBox="0 96 960 960" width="48"><path d="M226 924q-22.244 0-38.122-15.878T172 870.236V355.764q0-22.008 15.878-37.886Q203.756 302 226 302h88v-86h27v86h282v-86h24v86h87q22.244 0 38.122 15.878T788 356v242h-22v-73H194v345q0 12 10 22t22 10h276v22H226Zm534 116q-61 0-109-36.5T585 912h30q17 45 55.5 72.5T760 1012q65 0 110.5-45.5T916 856q0-65-45.5-110.5T760 700q-39 0-75 20t-62 52h81v28H576V672h28v79q29-35 70-57t86-22q76 0 130 54t54 130q0 76-54 130t-130 54ZM194 503h572V356q0-12-10-22t-22-10H226q-12 0-22 10t-10 22v147Zm0 0V324v179Z"/></svg>