<svg xmlns="http://www.w3.org/2000/svg" height="48" viewBox="0 96 960 960" width="48"><path d="m437 790.5-105-104 15-15 90 89 174-175 16 15-190 190ZM225.764 924q-22.008 0-37.886-15.878Q172 892.244 172 870.236V355.764q0-22.008 15.878-37.886Q203.756 302 226 302h88v-86h27v86h282v-86h24v86h87q22.244 0 38.122 15.878T788 355.764v514.472q0 22.008-15.878 37.886Q756.244 924 734.236 924H225.764Zm.236-22h508q12 0 22-10t10-22V525H194v345q0 12 10 22t22 10Zm-32-399h572V356q0-12-10-22t-22-10H226q-12 0-22 10t-10 22v147Zm0 0V324v179Z"/></svg>