<svg xmlns="http://www.w3.org/2000/svg" height="48" viewBox="0 96 960 960" width="48"><path d="M378.64 884q-15.14 0-26.89-11.61Q340 860.779 340 845.628t11.677-27.39Q363.354 806 377.86 806q15.64 0 27.39 12.099t11.75 27.25q0 15.151-11.61 26.901Q393.779 884 378.64 884Zm302.988 0q-15.151 0-27.39-11.61Q642 860.779 642 845.628t12.099-27.39Q666.198 806 681.349 806t26.901 12.099Q720 830.198 720 845.349t-11.61 26.901Q696.779 884 681.628 884ZM501 436.5 385.5 298q31.071-10.5 63.094-15.75Q480.617 277 508 277q40 0 74.5 8.75T647 310L501 436.5ZM485.207 764q-61.58 0-103.393-41.552Q340 680.895 340 618V374l-33-39q-28-34-47.3-47.5-19.3-13.5-39.5-13.5-27.271 0-44.736 18.8Q158 311.6 158 339h-22q0-36.05 25.165-61.525Q186.331 252 222 252q26.625 0 47.891 15.25Q291.158 282.5 321 320l333 399q12 13 3.551 29-8.448 16-25.44 16H485.207Zm.283-22H644.5L362 400.5V618q0 52 36 88t87.49 36ZM503 570.5Z"/></svg>