<svg xmlns="http://www.w3.org/2000/svg" height="48" viewBox="0 96 960 960" width="48"><path d="m480 866-17-16.5q-98.401-89.805-162.736-154.209-64.335-64.405-102.084-112.75-37.749-48.344-51.964-87.081Q132 456.724 132 419q0-69.718 47.5-117.359Q227 254 297 254q53.466 0 99.983 30T480 372q38-58.5 83.292-88.25Q608.583 254 663.129 254q69.876 0 117.373 47.531Q828 349.062 828 418.617q0 38.077-14.216 76.829-14.215 38.751-51.814 86.823-37.599 48.073-102.267 112.805Q595.034 759.807 497 849.5L480 866Zm0-30q97.204-88.739 160.273-151.698t100.148-110.13Q777.5 527 791.75 490.755 806 454.51 806 419.283q0-60.783-41.358-102.033Q723.283 276 663.471 276q-51.77 0-92.621 29Q530 334 490 397.5h-20Q429 334 387.812 305q-41.187-29-91.122-29-58.973 0-100.832 41.093Q154 358.186 154 420.038q0 35.08 14.73 71.135 14.73 36.055 50.934 83.01 36.203 46.955 99.52 110.136Q382.5 747.5 480 836Zm0-280.5Z"/></svg>