<svg xmlns="http://www.w3.org/2000/svg" height="48" viewBox="0 96 960 960" width="48"><path d="M315 763.5q-47.5 0-75.75-37.75T212.5 625v-9l-26-41.5q-24-36-39-92t-15-106.5q0-81 36-134.75T260 187.5q54 0 91.25 55T388.5 376q0 51-16.75 103.5T339.5 567l20.5 35q13 21 20.75 43t7.75 38q0 35-20.75 57.75T315 763.5Zm-90-170 89.5-23q15-33 33.5-91T366.5 376q0-68.5-31-117.5t-75.5-49q-44 0-74.75 47.25T154.5 376q0 60.5 20.25 120.75T225 593.5Zm90 148q22 0 36.75-16.75T366.5 683q0-18-10.5-42t-27.5-51.5l-94 24.5q-.5 57 21 92.25T315 741.5Zm330 222q-32 0-52.25-22.75T572.5 883q0-16 7.25-38T600 802l21.5-35q-16-34-32.5-87t-16.5-104q0-78.5 36.75-133.5t90.75-55q55.5 0 92 53.75T828.5 576q0 50.5-15 105.75t-39 92.75l-26 41.5v9.5q1 61-28 99.5T645 963.5ZM732.5 800q39.5-62 56.75-110.5T806.5 576q0-72-31.25-119.25T700 409.5q-44.5 0-75 49T594.5 576q0 45 18.25 103t34.75 91.5l85 29.5ZM645 941.5q36 0 58.5-35t23-85.5l-92-32.5Q622 808 608.25 833.75T594.5 883q0 25 14.5 41.75t36 16.75Z"/></svg>