<svg xmlns="http://www.w3.org/2000/svg" height="48" viewBox="0 96 960 960" width="48"><path d="M642 945.5 537.5 841l14.5-15.5 89 89 174-174 15.5 16.5L642 945.5Zm-348-209L279.5 722l66-66-66-66 14.5-15.5 66 66 66-66 15.5 15.5-66 66 66 66-15.5 14.5-66-66-66 66ZM226.047 924q-22.291 0-38.169-15.878Q172 892.244 172 870.236V355.764q0-22.008 15.878-37.886Q203.756 302 226 302h88v-86h27v86h282v-86h24v86h87q22.244 0 38.122 15.878T788 356v249.5l-22 23V525H194v345q0 12 10 22t22 10h209l24.5 22H226.047ZM194 503h572V356q0-12-10-22t-22-10H226q-12 0-22 10t-10 22v147Zm0 0V324v179Z"/></svg>