<svg xmlns="http://www.w3.org/2000/svg" height="48" viewBox="0 96 960 960" width="48"><path d="M186.5 924q-23.469 0-38.734-14.766Q132.5 894.469 132.5 870V281.77q0-22.239 15.266-38.004Q163.031 228 186.5 228h588.23q22.239 0 38.004 15.766Q828.5 259.531 828.5 281.77V870q0 24.469-15.766 39.234Q796.969 924 774.73 924H186.5Zm0-22h588q12 0 22-10t10-22V282q0-12-10-22t-22-10h-588q-12.5 0-22.25 10t-9.75 22v588q0 12 9.75 22t22.25 10Zm143.912-256q-10.912 0-17.912-7.375-7-7.375-7-17.713 0-10.337 7.088-17.625 7.087-7.287 17.5-7.287 10.412 0 17.912 7.39 7.5 7.391 7.5 17.75 0 10.36-7.663 17.61-7.662 7.25-17.425 7.25Zm301 0q-10.912 0-17.912-7.375-7-7.375-7-17.713 0-10.337 7.088-17.625 7.087-7.287 17.5-7.287 10.412 0 17.912 7.39 7.5 7.391 7.5 17.75 0 10.36-7.663 17.61T631.412 646ZM252.5 551v224q0 5.625 3.242 8.812 3.242 3.188 9.179 3.188h-1.358q4.812 0 7.875-3.188 3.062-3.187 3.062-8.812v-70h412v70q0 5.625 3.242 8.812 3.242 3.188 9.179 3.188h-1.358q4.812 0 7.875-3.188 3.062-3.187 3.062-8.812V551l-58-166q-1-6.5-7.311-10.25T630.5 371h-300q-6.122 0-12.222 3.5-6.099 3.5-7.778 10.5l-58 166Zm28-13 49-145h302l50 145h-401Zm-126-288v652-652Zm120 433V560h412v123h-412Z"/></svg>