<svg xmlns="http://www.w3.org/2000/svg" height="48" viewBox="0 96 960 960" width="48"><path d="M52.5 793.5v-22.469q0-33.705 36.416-56.618 36.416-22.913 95.511-22.913 10.249 0 20.583 1.25 10.334 1.25 18.49 2.932Q218 707 215 721.707q-3 14.706-3 29.592V793.5H52.5Zm240 0v-38.25q0-44.629 52.063-71.19 52.063-26.56 135.834-26.56 84.103 0 136.103 26.537 52 26.536 52 71.189V793.5h-376Zm455.5 0v-42.344q0-14.298-2.75-29.227T737 695.662q9.022-1.684 19.393-2.923Q766.763 691.5 777 691.5q60.3 0 95.9 22.913 35.6 22.913 35.6 56.618V793.5H748Zm-268.074-114q-77.926 0-123.676 21.75T313.5 758.5v13h334v-13q3-35.5-42.5-57.25T479.926 679.5Zm-296.213-22q-19.338 0-32.775-13.647-13.438-13.647-13.438-33.002 0-18.851 13.647-32.601t33.002-13.75q18.851 0 33.101 13.602 14.25 13.601 14.25 33.185 0 19.338-14.102 32.775-14.102 13.438-33.685 13.438Zm593 0q-18.713 0-32.463-13.647t-13.75-33.002q0-18.851 13.959-32.601 13.96-13.75 32.884-13.75 19.657 0 33.407 13.602 13.75 13.601 13.75 33.185 0 19.338-13.477 32.775-13.476 13.438-34.31 13.438Zm-296.267-30q-32.446 0-55.196-22.62-22.75-22.619-22.75-54.933 0-33.097 22.62-55.772 22.619-22.675 54.933-22.675 33.097 0 55.772 22.479 22.675 22.48 22.675 55.575 0 32.446-22.479 55.196-22.48 22.75-55.575 22.75Zm-.095-134q-23.851 0-39.851 16.455-16 16.456-16 39.694 0 23.851 15.851 39.851t40.5 16q22.649 0 39.149-15.851t16.5-40.5q0-22.649-16.455-39.149-16.456-16.5-39.694-16.5Zm.149 278ZM480 550Z"/></svg>