<svg xmlns="http://www.w3.org/2000/svg" height="48" viewBox="0 96 960 960" width="48"><path d="M477.39 884q-120.7 0-207.795-80Q182.5 724 172.5 604h22q11.5 109.5 91.732 183.75T477.245 862Q597 862 680.75 777.974q83.75-84.027 83.75-203.732 0-118.706-83.5-201.474Q597.5 290 477.5 290q-59.77 0-113.135 23.75T269.5 380.147h94V402h-134V267h22v100q44.5-46 102.903-72.5Q412.806 268 477.416 268q64.084 0 119.866 24.13t97.5 65.75Q736.5 399.5 761.5 455.617q25 56.116 25 119.25 0 64.133-25 120.883t-66.5 98Q653.5 835 597.26 859.5 541.02 884 477.39 884ZM615.5 724l-145-144V375h22v196l139 137-16 16Z"/></svg>