<svg xmlns="http://www.w3.org/2000/svg" height="48" viewBox="0 96 960 960" width="48"><path d="M185.78 844q-22.024 0-37.902-15.878T132 790v-89.5h22V790q0 12 10 22t22 10h588.5q12 0 22-10t10-22V361.5q0-12-10-22t-22-10H186q-12 0-22 10t-10 22v89h-22v-89q0-21.713 15.878-37.856Q163.756 307.5 185.78 307.5h589.17q21.263 0 37.406 16.144 16.144 16.143 16.144 37.448v429.106q0 22.046-16.144 37.924Q796.213 844 774.95 844H185.78ZM480 699l-16-15.5 96.5-97H132v-22h428.5l-96.5-96 16-15.5 123 123-123 123Z"/></svg>