<svg xmlns="http://www.w3.org/2000/svg" height="48" viewBox="0 96 960 960" width="48"><path d="M186 804q-22.244 0-38.122-15.766Q132 772.469 132 750V402q0-22.244 15.878-38.122T186 348h588q22.244 0 38.122 15.878T828 402v348q0 22.469-15.878 38.234Q796.244 804 774 804H186Zm0-22h588q12 0 22-10t10-22V402q0-12-10-22t-22-10H186q-12 0-22 10t-10 22v348q0 12 10 22t22 10Zm140-60h308v-50H326v50ZM213 601h50v-50h-50v50Zm121 0h50v-50h-50v50Zm121 0h50v-50h-50v50Zm121 0h50v-50h-50v50Zm121 0h50v-50h-50v50ZM213 479h50v-50h-50v50Zm121 0h50v-50h-50v50Zm121 0h50v-50h-50v50Zm121 0h50v-50h-50v50Zm121 0h50v-50h-50v50ZM154 782V370v412Z"/></svg>