<svg xmlns="http://www.w3.org/2000/svg" height="48" viewBox="0 96 960 960" width="48"><path d="M165.658 758q-9.158 0-14.158-5.417t-5-13.425q0-8.008 4.842-13.583 4.842-5.575 13.5-5.575 8.658 0 14.158 5.447 5.5 5.448 5.5 13.5 0 8.053-5.417 13.553t-13.425 5.5Zm0-163q-9.158 0-14.158-5.417t-5-13.425q0-8.008 4.842-13.583 4.842-5.575 13.5-5.575 8.658 0 14.158 5.447 5.5 5.448 5.5 13.5 0 8.053-5.417 13.553t-13.425 5.5Zm0-163q-9.158 0-14.158-5.417t-5-13.425q0-8.008 4.842-13.583 4.842-5.575 13.5-5.575 8.658 0 14.158 5.447 5.5 5.448 5.5 13.5 0 8.053-5.417 13.553t-13.425 5.5ZM295.5 750v-22h519v22h-519Zm0-163v-22h519v22h-519Zm0-163v-22h519v22h-519Z"/></svg>