<svg xmlns="http://www.w3.org/2000/svg" height="48" viewBox="0 96 960 960" width="48"><path d="M185.78 844q-22.024 0-37.902-15.878T132 790.198V361.802q0-22.046 15.878-37.924T186 308h405q-1 5.5-1.25 10.75T588.5 330H172l308 205 144.5-96q2 4.5 5.059 9.269T636 458L480 562.5 154 344v446q0 14 9 23t23 9h588q14 0 23-9t9-23V499.143q5.706-.752 11.103-2.947Q822.5 494 828 491.5v298.622q0 22.122-15.878 38T774.22 844H185.78ZM154 330v492-492Zm605.971 96.5q-37.971 0-64.221-26.574-26.25-26.573-26.25-64.25 0-37.676 26.574-64.426 26.573-26.75 64.25-26.75 37.676 0 64.426 26.779 26.75 26.78 26.75 64.75 0 37.971-26.779 64.221-26.78 26.25-64.75 26.25Z"/></svg>