<svg xmlns="http://www.w3.org/2000/svg" height="48" viewBox="0 96 960 960" width="48"><path d="M554 473v-22q32-16.5 69.678-25.25Q661.355 417 700 417q20.684 0 40.092 2.29 19.408 2.29 39.908 7.725V449q-19.5-5.5-38.516-7.75Q722.467 439 700.2 439q-38.719 0-76.459 8.5Q586 456 554 473Zm0 218v-24q30-16.5 69.178-25.25Q662.355 633 700 633q20.684 0 40.092 2.75Q759.5 638.5 780 643v22q-19.52-5.5-38.53-7.75T700.162 655q-38.773 0-76.563 9.5Q585.808 674 554 691Zm0-108v-24q32-16.5 69.678-25.25Q661.355 525 700 525q20.684 0 40.092 2.75Q759.5 530.5 780 535v22q-19.52-5.5-38.53-7.75T700.162 547q-38.773 0-76.563 9.5Q585.808 566 554 583ZM256 744q56.074 0 109.037 13.5Q418 771 470 800V398q-45-35-101.52-52.5Q311.961 328 255.897 328q-36.631 0-61.382 4-24.751 4-58.515 15.106-12 4-17 11.5t-5 16.5V737q0 13 10 19.5t22 2.5q17-7 45-11t65-4Zm236 56q51.267-29 103.149-42.5Q647.032 744 703.885 744q36.888 0 65.501 4Q798 752 814 757q12 5 22-1.5t10-20.5V375q0-9-5-16t-17-12q-32.5-11.5-57.657-15.25Q741.187 328 704 328q-57 0-112.5 17.5T492 398.344V800Zm-11.5 32q-51-32.5-107.826-49.25Q315.849 766 256 766q-25.951 0-50.976 3.25-25.024 3.25-50.662 10.04-23.462 9.21-42.912-6.396Q92 757.287 92 731V379q0-16.5 9-30.9 9-14.4 25-21.1 31.603-11 64.505-16 32.903-5 65.495-5 60.74 0 117.62 18T481 377q49.5-35 106.336-53T704 306q32.561 0 65.434 5.226 32.872 5.227 64.355 15.68Q850 333.5 859 348t9 31v352q0 25.894-22 40.447-22 14.553-46.181 5.698Q776 771.5 752.006 768.75 728.012 766 704 766q-59.756 0-116.378 16.75T480.5 832ZM292 556Z"/></svg>