<svg xmlns="http://www.w3.org/2000/svg" height="48" viewBox="0 96 960 960" width="48"><path d="M222.5 396q-9-11-12.5-24.25T206.5 344q0-38.25 26.75-65.125T298.971 252q37.97 0 64.75 26.875Q390.5 305.75 390.5 344q0 14.5-4 27.75T375.589 396H222.5Zm186.646 504q-51.066 0-86.856-36.175Q286.5 827.65 286.5 777h-26l-34-336h144l-34 336h-28q0 41.875 29.539 71.438Q367.577 878 409.589 878q41.011 0 70.461-29.763Q509.5 818.475 509.5 777V374q0-49.65 35.644-85.825Q580.788 252 631.894 252q50.106 0 86.356 36.175 36.25 36.175 36.25 85.545V900h-22V374q0-41.062-29.831-70.531Q672.839 274 632.119 274q-41.719 0-71.169 29.469Q531.5 332.938 531.5 374v403q0 50.65-36.144 86.825Q459.212 900 409.146 900ZM280.5 755h37l28-292h-93l28 292Zm37-292h-65 93-28Z"/></svg>