<svg xmlns="http://www.w3.org/2000/svg" height="48" viewBox="0 96 960 960" width="48"><path d="m376.5 548.5-25 54-55 25 55.417 25.267L376.5 707.5l25.267-54.733L455.5 627.5l-53.733-24.583L376.5 548.5Zm247.5-24-19.15 42.025L562.5 586l42.35 19.475L624 647.5l19.5-42 42-19.5-42-19.5-19.5-42ZM185.916 308 238.5 414h123L309 308h84l51.5 106h123L515 308h83l52.5 106h123L720 308h53.961q22.283 0 38.161 15.878T828 361.802v428.396q0 22.046-15.878 37.924T774.22 844H185.78q-22.024 0-37.902-15.878T132 790.211V361.953q0-22.228 15.553-37.591Q163.106 309 185.916 308ZM154 436v354q0 14 9 23t23 9h588q14 0 23-9t9-23V436H154Zm0 0v386-386Z"/></svg>