<svg xmlns="http://www.w3.org/2000/svg" height="48" viewBox="0 96 960 960" width="48"><path d="M469 936v-51q-129.5-12-207.75-90.25T171 587h-51v-22h51q12-129.5 90.25-207.75T469 266.404V216h22v50q129.5 13 207.75 91.25T789.596 565H840v22h-50q-13 129.5-91.25 207.75T491 885v51h-22Zm11.05-73q119.551 0 203.25-83.75Q767 695.5 767 575.95q0-119.551-83.7-203.25Q599.601 289 480.05 289q-119.55 0-203.3 83.7Q193 456.399 193 575.95q0 119.55 83.75 203.3Q360.5 863 480.05 863ZM480 681q-44.025 0-74.512-30.488Q375 620.025 375 576q0-44.025 30.488-74.512Q435.975 471 480 471q44.025 0 74.512 30.488Q585 531.975 585 576q0 44.025-30.488 74.512Q524.025 681 480 681Zm-.142-22q35.348 0 59.245-23.755Q563 611.489 563 576.142q0-35.348-23.755-59.245Q515.489 493 480.142 493q-35.348 0-59.245 23.755Q397 540.511 397 575.858q0 35.348 23.755 59.245Q444.511 659 479.858 659Zm.142-83Z"/></svg>