<svg xmlns="http://www.w3.org/2000/svg" height="48" viewBox="0 96 960 960" width="48"><path d="M314 884q-59.43 0-100.715-41.285Q172 801.43 172 742V410q0-58.93 41.285-100.465Q254.57 268 314 268h332q58.93 0 100.465 41.535Q788 351.07 788 410v332q0 59.43-41.535 100.715Q704.93 884 646 884H314Zm0-22h332q50 0 85-35t35-85V410q0-50-35-85t-85-35H314q-50 0-85 35t-35 85v332q0 50 35 85t85 35Zm165.971-119Q417 743 373.25 698.983q-43.75-44.017-43.75-107.542Q329.5 529 373.426 485q43.927-44 106.75-44Q543 441 587.25 485.059t44.25 107Q631.5 655 587.221 699q-44.28 44-107.25 44Zm-.056-22q53.695 0 91.64-37.86 37.945-37.861 37.945-91.26 0-53.398-37.86-91.139Q533.779 463 480.085 463q-53.695 0-91.14 37.656-37.445 37.657-37.445 91.055 0 53.399 37.361 91.344Q426.221 721 479.915 721Zm.015-330.5q-11.43 0-17.93-6.57t-6.5-18q0-11.43 6.57-18.43t18-7q11.43 0 18.43 7.208 7 7.207 7 18.362 0 11.43-7.208 17.93-7.207 6.5-18.362 6.5Z"/></svg>