<svg xmlns="http://www.w3.org/2000/svg" height="48" viewBox="0 96 960 960" width="48"><path d="M801.5 927.5 619 747H488.5q-22.5 0-38.25-15.75T434.5 694V561.5L128 255l16-15.5 672 672-14.5 16Zm-397 24.5q-74 0-124.5-50.75T229.5 777q0-68 46.75-118T397 602.5v22Q329 630 290.25 675T251.5 777q0 64 44.25 108.5T404.5 930q57 0 101.25-38T556 783.5h22Q572.5 858 522.25 905T404.5 952Zm82-606q-27.5 0-44.75-18.25T424.5 284q0-25.5 17.25-43.75T486.5 222q25.5 0 43.75 18.25T548.5 284q0 25.5-18.25 43.75T486.5 346Zm245 236q-58.5-8-99.75-33T549 481.5L528.5 460v60l-90-90q4.5-13 17-20.75t30-7.75q14.5 0 27.25 9.25T541 437.5l27.5 29q32.5 36 75 62.25t88 31.25v22Z"/></svg>