<svg xmlns="http://www.w3.org/2000/svg" height="48" viewBox="0 96 960 960" width="48"><path d="M478 924q-70.5 0-133.799-27.408-63.298-27.408-110.342-74.701-47.043-47.294-74.451-110.842Q132 647.5 132 575.994q0-72.494 28.304-136t77-110.5Q286 282.5 351 255.25T489.804 228q67.908 0 128.552 22Q679 272 725.621 311.867q46.62 39.868 74.5 95.25Q828 462.5 828 527.1q0 84.143-46.5 138.521Q735 720 642.937 720H573q-33.5 0-57.25 23.304Q492 766.607 492 800.071q0 33.376 15 48.403Q522 863.5 522 884q0 18.5-11.25 29.25T478 924Zm2-348Zm-224.105 10q12.305 0 21.705-9.295 9.4-9.296 9.4-21.6 0-12.305-9.295-21.705-9.296-9.4-21.6-9.4-12.305 0-21.705 9.295-9.4 9.296-9.4 21.6 0 12.305 9.295 21.705 9.296 9.4 21.6 9.4Zm122-163q12.305 0 21.705-9.295 9.4-9.296 9.4-21.6 0-12.305-9.295-21.705-9.296-9.4-21.6-9.4-12.305 0-21.705 9.295-9.4 9.296-9.4 21.6 0 12.305 9.295 21.705 9.296 9.4 21.6 9.4Zm204 0q12.305 0 21.705-9.295 9.4-9.296 9.4-21.6 0-12.305-9.295-21.705-9.296-9.4-21.6-9.4-12.305 0-21.705 9.295-9.4 9.296-9.4 21.6 0 12.305 9.295 21.705 9.296 9.4 21.6 9.4Zm123 163q12.305 0 21.705-9.295 9.4-9.296 9.4-21.6 0-12.305-9.295-21.705-9.296-9.4-21.6-9.4-12.305 0-21.705 9.295-9.4 9.296-9.4 21.6 0 12.305 9.295 21.705 9.296 9.4 21.6 9.4ZM477.962 902q10.93 0 16.484-4.5Q500 893 500 884q0-14-15-27t-15-50q0-44.5 29.591-76.75T572.176 698H643q81 0 122-48.25T806 527q0-125.5-95.75-201.25T489.966 250Q347.5 250 250.75 344.773 154 439.547 154 576q0 135.5 94.75 230.75T477.962 902Z"/></svg>