<svg xmlns="http://www.w3.org/2000/svg" height="48" viewBox="0 96 960 960" width="48"><path d="M197.628 870Q125 870 75.5 820.75t-49.5-123Q26 626 76.707 574.5 127.415 523 199 523q64 0 115 45.75T370 686h92l-93-262h-63v-22h144v22h-58l36 99h259l-74-201q-3-9-10-13.5t-16-4.5h-79v-22h76.92q15.981 0 29.53 9.25 13.55 9.25 19.608 24.807L710 524h52q71.632 0 121.816 49.986T934 695.315Q934 768 884.49 818t-122.508 50q-67.658 0-116.9-46.469Q595.84 775.062 589.041 708H370q-5 70.5-56.17 116.25T197.628 870Zm.372-22q54.67 0 97.919-36.906Q339.169 774.188 350 708H228v-22h122q-11-66-54.103-102.5Q252.795 547 199 547q-64 0-107.5 43.625T48 697q0 63.75 43.625 107.375T198 848Zm289-162h102q3-29 23.75-74T673 545H436l51 141Zm275.175 162Q825 848 868.5 804.375t43.5-106.91Q912 634 868.375 590.5T762 547q-11 0-22.25.5T718 551l42 114-20 8-42-114q-42.5 20-64.25 59.5T612 697.184q0 63.566 43.675 107.191Q699.351 848 762.175 848ZM199.5 697Zm562.5 0Z"/></svg>