<svg xmlns="http://www.w3.org/2000/svg" height="48" viewBox="0 96 960 960" width="48"><path d="M480.022 544q-44.572 0-74.797-30.203Q375 483.594 375 438.522t30.203-74.797Q435.406 334 479.978 334t74.797 29.703Q585 393.406 585 438.478t-30.203 75.297Q524.594 544 480.022 544ZM212 824v-47q0-23.354 13.991-42.24 13.991-18.885 37.072-29.827 57.173-24.879 111.024-38.156Q427.938 653.5 479.985 653.5q52.046 0 106.03 13 53.985 13 110.677 38.953 23.558 10.493 37.433 29.412Q748 753.783 748 777.241V824H212Zm22-22h492v-24.744q0-15.446-10.75-29.351T686.5 723.5q-51.63-25-102.752-36.5-51.122-11.5-103.682-11.5-52.91 0-104.238 11.5T274.5 723.5q-19 10.5-29.75 24.574Q234 762.148 234 777.238V802Zm246-280q35 0 59-24t24-59q0-35-24-59t-59-24q-35 0-59 24t-24 59q0 35 24 59t59 24Zm0-83Zm0 363Z"/></svg>