<svg xmlns="http://www.w3.org/2000/svg" height="48" viewBox="0 96 960 960" width="48"><path d="M480.054 666.5q39.843 0 74.395-17 34.551-17 59.051-47-30.5-18-63.411-28-32.912-10-70.25-10-37.339 0-70.089 10t-62.25 28q23.5 30 58.106 47t74.448 17Zm.181-200q21.765 0 36.515-14.984 14.75-14.985 14.75-35.75 0-21.766-14.693-36.516-14.692-14.75-36.749-14.75-21.058 0-35.808 14.693-14.75 14.692-14.75 36.75 0 21.057 14.985 35.807 14.984 14.75 35.75 14.75Zm-.235 458q128.271-110.571 200.385-226.438Q752.5 582.195 752.5 504.299q0-123.089-78.005-201.944Q596.49 223.5 480.037 223.5q-116.454 0-193.995 78.887Q208.5 381.274 208.5 504.472q0 77.967 72.115 193.712Q352.729 813.929 480 924.5Zm0 31q-148.5-133-221-247.701-72.5-114.702-72.5-203.899 0-138.086 88.892-220.243 88.892-82.157 204.75-82.157t205.108 82.145q89.25 82.144 89.25 220.388 0 88.967-73 203.717Q628.5 822.5 480 955.5Zm0-451.5Z"/></svg>