<svg xmlns="http://www.w3.org/2000/svg" height="48" viewBox="0 96 960 960" width="48"><path d="M225.764 884q-22.008 0-37.886-15.878Q172 852.244 172 830.236V321.764q0-22.233 15.878-37.998Q203.756 268 225.764 268h508.472q22.233 0 37.998 15.766Q788 299.531 788 321.764v508.472q0 22.008-15.766 37.886Q756.469 884 734.236 884H225.764Zm.236-22h127.5V656.5H332q-11.675 0-20.087-8.412Q303.5 639.675 303.5 628V290H226q-14 0-23 9t-9 23v508q0 14 9 23t23 9Zm381.5 0H734q14 0 23-9t9-23V322q0-14-9-23t-23-9h-76.5v338q0 11.675-8.806 20.088Q639.888 656.5 628 656.5h-20.5V862Zm-232 0h210V656.5H564q-12.65 0-20.575-8.412Q535.5 639.675 535.5 628V290h-110v338q0 11.675-8.319 20.088Q408.863 656.5 396 656.5h-20.5V862Z"/></svg>