<svg xmlns="http://www.w3.org/2000/svg" height="48" viewBox="0 96 960 960" width="48"><path d="M347 752h22v-42h55q11 0 18.5-8t7.5-18.335V591.5q0-11.74-7.5-19.62Q435 564 424 564H287V464h163v-22h-81v-42h-22v42h-54q-12 0-20 8t-8 19.442v91.116Q265 572 273 579t20 7h135v102H265v22h82v42Zm296-20 50-50H593l50 50Zm-50-252h100l-50-50-50 50ZM185.78 844q-22.024 0-37.902-15.878T132 790.198V361.802q0-22.046 15.878-37.924T185.78 308h588.44q22.024 0 37.902 15.878T828 361.802v428.396q0 22.046-15.878 37.924T774.22 844H185.78Zm.22-22h588q12 0 22-10t10-22V362q0-12-10-22t-22-10H186q-12 0-22 10t-10 22v428q0 12 10 22t22 10Zm-32 0V330v492Z"/></svg>