<svg xmlns="http://www.w3.org/2000/svg" height="48" viewBox="0 96 960 960" width="48"><path d="M529 678q10.5 0 19.25-8.452Q557 661.095 557 650.5q0-10.595-8.75-19.048Q539.5 623 529 623t-19.25 8.452Q501 639.905 501 650.5q0 10.595 8.75 19.048Q518.5 678 529 678Zm-13-107.5h25.5q-.5-24.5 7.427-37 7.926-12.5 34.496-36.635Q606.5 476.5 616.5 458.75q10-17.75 10-40.571 0-40.12-28.164-66.9-28.165-26.779-70.001-26.779-30.132 0-54.984 15.75Q448.5 356 435.5 384.5l23 11q13-23 29.382-34.5 16.383-11.5 40.118-11.5 32 0 53.25 19.135T602.5 417q0 18-10.25 34t-33.75 34.5q-23.5 21-33 39.5t-9.5 45.5ZM308 776q-22.244 0-38.122-15.878T254 722V282q0-22.244 15.878-38.122T308 228h440q22.244 0 38.122 15.878T802 282v440q0 22.244-15.878 38.122T748 776H308Zm0-22h440q12 0 22-10t10-22V282q0-12-10-22t-22-10H308q-12 0-22 10t-10 22v440q0 12 10 22t22 10Zm-96 118q-22.244 0-38.122-15.878T158 818V356h22v462q0 12 10 22t22 10h462v22H212Zm64-622v504-504Z"/></svg>