<svg xmlns="http://www.w3.org/2000/svg" height="48" viewBox="0 96 960 960" width="48"><path d="M56.5 679.5v-208h124q18.042 0 30.021 12.479T222.5 513.5v44q0 20.312-14.25 30.656Q194 598.5 179 598.413l34.5 81.087H185l-34-82H80.5v82h-24Zm242 0v-24h120v-68h-93q-12.225 0-19.612-7.388-7.388-7.387-7.388-19.612v-62q0-11.362 7.388-19.181 7.387-7.819 19.612-7.819h117v24h-120v68h93q11.363 0 19.181 7.819 7.819 7.818 7.819 19.181v62q0 12.225-7.819 19.612-7.818 7.388-19.181 7.388h-117Zm279.5 0-59.5-208h26l54 186 53-186h26l-60.5 208h-39Zm160.5 0v-208h124q17.042 0 29.521 12.479T904.5 513.5v42q0 18.917-12.479 30.458Q879.542 597.5 862.5 597.5h-100v82h-24Zm-658-106h100q6.5 0 12.25-4.5t5.75-11.5v-44q0-6.5-5.75-12.25t-12.25-5.75h-100v78Zm682 0h100q6.5 0 12.25-5.5t5.75-12.5v-42q0-6.5-5.75-12.25t-12.25-5.75h-100v78Z"/></svg>