<svg xmlns="http://www.w3.org/2000/svg" height="48" viewBox="0 96 960 960" width="48"><path d="M594 677.5q-9.5 0-15.5-6t-6-15.5V496q0-9.125 6-16.312 6-7.188 15.5-7.188h100.5q8.7 0 15.6 7.188Q717 486.875 717 496v160q0 9.5-6.9 15.5t-15.6 6H594Zm3.5-25H692v-155h-94.5v155Zm-354.5 25v-91q0-9 8.9-17.25t18.6-8.25h93v-63.5H243v-25h123.041q9.459 0 15.959 7.188 6.5 7.187 6.5 16.312v68.5q0 10-8.538 18.25Q371.425 591 362 591h-94v61.5h120.5v25H243Zm225.5-150V500h25v27.5h-25Zm0 130.5v-28.5h25V658h-25ZM183.78 833q-22.024 0-37.902-15.878T130 779.137V378.863q0-22.107 15.878-37.985T184 325h125v-80h22v80h298v-80h22v80h125q22.244 0 38.122 15.878T830 378.863v400.274q0 22.107-15.878 37.985T776.22 833H183.78Zm3.22-25h281.5v-48h25v48H773q12 0 22-10t10-22V382q0-12-10-22t-22-10H493.5v48h-25v-48H187q-12 0-22 10t-10 22v394q0 12 10 22t22 10Zm-32 0V350v458Z"/></svg>