<svg xmlns="http://www.w3.org/2000/svg" height="48" viewBox="0 96 960 960" width="48"><path d="M358 544.5 283.5 472l19.5-20.5 54 54 100-99 20.5 19.5L358 544.5Zm424 347-253.766-254q-29.339 27.577-69.285 41.538Q419.003 693 381.658 693q-92.18 0-155.669-63.5Q162.5 566 162.5 474.5t62.954-155Q288.408 256 380.226 256q91.819 0 156.046 63.5Q600.5 383 600.5 474.288 600.5 515 585 554.5t-41 67.479L798 874.5l-16 17ZM381.5 671q82.583 0 139.792-56.368 57.208-56.367 57.208-140.25 0-83.882-57.208-140.132Q464.083 278 381 278t-139.792 56.368Q184.5 390.735 184.5 474.618q0 83.882 56.792 140.132Q298.083 671 381.5 671Z"/></svg>