<svg xmlns="http://www.w3.org/2000/svg" height="48" viewBox="0 96 960 960" width="48"><path d="M269 860q-18.625 0-30.812-10.188Q226 839.625 226 822q0-12.5 7-22.25T252 786l176-70V534q-80 95.5-135 133.25T154 716v-23q58.38-5 111.69-35Q319 628 364 574l56-62q5.5-9.5 16.5-14.75T459 492h42q11.5 0 22.5 5.25T541 512l55 62q46 53.5 98.81 83.75T806 693v23q-84-11-139-48.75T532 534v182l176 70q12 4 19 13.75t7 22.456q0 17.294-12.188 27.544Q709.625 860 691 860H399v1.065q0-23.565 11.84-35.815Q422.68 813 445.817 813h136.135q9.048 0 14.548-5.388Q602 802.225 602 793q0-9.225-5.388-14.612Q591.225 773 582 773H446.13q-38.63 0-62.88 24.25T359 861v-1h-90Zm211-434q-25.5 0-43.75-18.25T418 364q0-25.5 18.25-43.75T480 302q25.5 0 43.75 18.25T542 364q0 25.5-18.25 43.75T480 426Z"/></svg>