<svg xmlns="http://www.w3.org/2000/svg" height="48" viewBox="0 96 960 960" width="48"><path d="M480.124 242q-25.624 0-43.874-18.126Q418 205.748 418 180.124t18.126-43.874Q454.252 118 479.876 118t43.874 18.126Q542 154.252 542 179.876t-18.126 43.874Q505.748 242 480.124 242ZM407 850V341.928Q342.674 337 284.587 328.5T175 308l4.806-22q75.194 18 147.62 26 72.425 8 152.574 8 80.149 0 152.574-8 72.426-8 148.62-26L785 308q-51.5 12-109.489 20.409-57.989 8.41-122.511 13.884V850h-22V607H429v243h-22Zm-88 194q-11.425 0-19.212-7.69-7.788-7.69-7.788-19.71t7.575-19.813Q307.15 989 319 989q11.425 0 19.712 7.862Q347 1004.72 347 1017q0 11.85-8.288 19.43Q330.425 1044 319 1044Zm161 0q-11.85 0-19.425-7.69-7.575-7.69-7.575-19.71t7.691-19.813Q468.382 989 480.404 989q12.021 0 19.808 7.862Q508 1004.72 508 1017q0 11.85-7.862 19.43Q492.275 1044 480 1044Zm161.596 0q-12.021 0-19.809-7.69-7.787-7.69-7.787-19.71t7.862-19.813Q629.725 989 642 989q11.85 0 19.425 7.862Q669 1004.72 669 1017q0 11.85-7.691 19.43-7.691 7.57-19.713 7.57Z"/></svg>