<svg xmlns="http://www.w3.org/2000/svg" height="48" viewBox="0 96 960 960" width="48"><path d="M721.647 950q-38.147 0-64.897-27Q630 896 630 858.18q0-8.282 1.5-18.317 1.5-10.036 5.5-17.774L312 630q-12.788 18-32.638 28-19.851 10-41.454 10-38.241 0-65.075-26.979Q146 614.042 146 575.5q0-38.125 27.029-64.812Q200.057 484 238.033 484q22.602 0 41.784 9.5Q299 503 312 521l325-191q-4-8.071-5.5-17.592Q630 302.886 630 294q0-38 27.103-65t65.25-27q38.147 0 64.897 26.854Q814 255.708 814 293.735q0 39.777-27.029 66.021Q759.943 386 721.717 386q-22.186 0-40.952-9Q662 368 648 350L324 540q3 7.286 4.504 17.471 1.503 10.185 1.503 18.631t-1.503 17.702Q327 603.06 324 611.058L648 801q13.788-16 32.461-25.5 18.674-9.5 41.631-9.5 38.241 0 65.075 25.987Q814 817.973 814 856.882q0 39.785-27.103 66.451Q759.794 950 721.647 950Zm.564-586q29.076 0 49.433-20.567Q792 322.866 792 293.789q0-29.076-20.567-49.433Q750.866 224 721.789 224q-29.076 0-49.433 20.567Q652 265.134 652 294.211q0 29.076 20.567 49.433Q693.134 364 722.211 364Zm-484 282q29.077 0 49.433-20.567Q308 604.866 308 575.789q0-29.076-20.567-49.433Q266.866 506 237.789 506q-29.077 0-49.433 20.567Q168 547.134 168 576.211q0 29.076 20.567 49.433Q209.134 646 238.211 646Zm484 282q29.076 0 49.433-20.567Q792 886.866 792 857.789q0-29.076-20.567-49.433Q750.866 788 721.789 788q-29.076 0-49.433 20.567Q652 829.134 652 858.211q0 29.076 20.567 49.433Q693.134 928 722.211 928ZM722 294ZM238 576Zm484 282Z"/></svg>