<svg xmlns="http://www.w3.org/2000/svg" height="48" viewBox="0 96 960 960" width="48"><path d="M250 878.5 129.5 758 250 636.5l17.5 17.5-92.5 91.5h610L693.5 654l16.5-17.5L831.5 758 710 878.5 693.5 862l91.5-91.5H175l92.5 91.5-17.5 16.5Zm-123.5-374v1.5q0-13.277 8.219-24.341 8.22-11.064 22.281-18.159 23.578-8.522 48.32-14.761 24.742-6.239 51.961-6.239 27.219 0 51.2 6.239Q332.463 454.978 357 463.5q14.061 7.095 22.781 18.159Q388.5 492.723 388.5 506v-1.5h-262Zm446 0v1.5q0-13.206 8.158-24.211Q588.816 470.784 604 463.5q23.578-8.522 47.603-14.761 24.025-6.239 51.243-6.239 27.219 0 51.918 6.239Q779.463 454.978 803 463.5q14.061 7.095 22.781 18.159Q834.5 492.723 834.5 506v-1.5h-262ZM257.124 367q-21.886 0-37.505-15.663Q204 335.674 204 314.456q0-21.219 15.663-36.837Q235.326 262 257.212 262q21.887 0 36.837 15.663Q309 293.326 309 314.544q0 21.219-14.995 36.837Q279.01 367 257.124 367Zm445.664 0q-21.887 0-36.837-15.663Q651 335.674 651 314.456q0-21.219 14.995-36.837Q680.99 262 702.876 262q21.887 0 37.505 15.663Q756 293.326 756 314.544q0 21.219-15.663 36.837Q724.674 367 702.788 367Z"/></svg>