<svg xmlns="http://www.w3.org/2000/svg" height="48" viewBox="0 96 960 960" width="48"><path d="M498.5 921.5q-59.866-6.75-118.433-31.125Q321.5 866 273.654 819.984q-47.845-46.016-80.25-116.041Q161 633.918 154.5 536.084l-2-29.084 26.78 2q39.72 3 100.22 25.5T377 589q2-73.5 30.246-156.189Q435.493 350.122 480 294q45.514 56.443 73.257 139.972Q581 517.5 583.5 591q33.5-28.5 92.236-53.75Q734.473 512 779.696 509L808 507l-2 31.506q-4 69.994-23.515 129.103-19.515 59.11-56 107.75Q690 824 633.5 860.5q-56.5 36.5-135 61Zm3-22Q490 728 399.959 639.961 309.918 551.921 176.5 531q10 177.5 103.706 264.939Q373.911 883.378 501.5 899.5Zm-21.5-183q12-28.5 35-58.25t45-49.75q2-65.5-20.25-136.5T480 333.5q-38 67.5-60 138.75T400.5 608.5q22 20 43.129 50.75Q464.759 690 480 716.5Zm43.5 172q52.5-18.5 98.25-47t80.439-71.051q34.688-42.551 56.773-101.413Q781.046 610.174 784 531q-102.5 13.5-182.25 73.25T491.5 746.089q11.5 34.8 19 65.855Q518 843 523.5 888.5Zm-43.5-172Zm43.5 172Zm-22 11Zm-10-153Zm7 175Z"/></svg>