<svg xmlns="http://www.w3.org/2000/svg" height="48" viewBox="0 96 960 960" width="48"><path d="M654 924H306q-21.5 0-37.75-16.25T252 870V282q0-21.5 16.25-37.75T306 228h348q21.5 0 37.75 16.25T708 282v588q0 21.5-16.25 37.75T654 924Zm0-22q14 0 23-9t9-23V282q0-14-9-23t-23-9H306q-14 0-23 9t-9 23v588q0 14 9 23t23 9h348ZM480.509 435q24.254 0 41.372-17.628Q539 399.745 539 375.991t-17.009-41.372Q504.982 317 479.991 317q-23.754 0-40.872 17.628Q422 352.255 422 376.009t17.128 41.372Q456.255 435 480.509 435Zm-.279 394q55.77 0 94.27-38.73 38.5-38.73 38.5-94.5t-38.73-94.27q-38.73-38.5-94.5-38.5t-94.27 38.73q-38.5 38.73-38.5 94.5t38.73 94.27q38.73 38.5 94.5 38.5Zm-.442-22q-45.288 0-78.038-32.962Q369 741.075 369 695.788q0-45.288 32.962-78.038Q434.925 585 480.212 585q45.288 0 78.038 32.962Q591 650.925 591 696.212q0 45.288-32.962 78.038Q525.075 807 479.788 807ZM274 250v652-652Z"/></svg>