<svg xmlns="http://www.w3.org/2000/svg" height="48" viewBox="0 96 960 960" width="48"><path d="M341.5 816.5h264v-349H534q-30.629 0-48.034 13.755-17.404 13.754-41.966 40.469-32 36.117-56.354 50.399-24.355 14.282-46.146 17.056V816.5Zm-22.183 22V588Q274 578.909 244.25 550.442q-29.75-28.467-29.75-76.424 0-38.614 23-68.816Q260.5 375 301.162 362 319 323 352.53 298.25q33.529-24.75 79.26-24.75 25.835 0 49.772 9 23.938 9 48.743 30 6.922-3 13.351-4.5 6.43-1.5 14.344-1.5 46.206 0 76.353 35.053 30.147 35.054 30.147 81.128 0 16.319-2.5 27.819t-7.5 20h38q22 0 38 16t16 38v192q0 22.938-16 38.469-16 15.531-38 15.531h-65v68H319.317ZM236.5 474.01q0 38.16 27.544 64.325Q291.587 564.5 330 564.5q30.877 0 52.688-15.5 21.812-15.5 43.812-40.5 24-26.5 47.5-44.75t60-18.25h108.5q4-48-20.25-82.5T558 328.5q-9 0-17.25 1.75T524.5 336l-15-12q-12.5-10.5-32.329-19.5t-45.281-9q-34.602 0-63.246 18Q340 331.5 326.5 362l-9.152 17.634L298 385.5q-28.5 10.5-45 34.943-16.5 24.442-16.5 53.567Zm391 274.49h65q13.5 0 22.75-9t9.25-23v-192q0-13.5-9.25-22.75t-22.75-9.25h-65v256Zm-286 68h264-264Z"/></svg>