<svg xmlns="http://www.w3.org/2000/svg" height="48" viewBox="0 96 960 960" width="48"><path d="M169.844 804q-20.594 0-32.469-15.25T129 756l46-317q5-38 34.146-64.5t67.819-26.5h407.07q37.673 0 66.819 26.5T786 439l45 317q3.5 17.5-8.375 32.75T791.156 804q-11.709 0-20.035-3-8.327-3-15.152-10L645.583 681H314.417L204.031 791q-6.825 7-15.152 10-8.326 3-19.035 3Zm16.656-27 117.773-118H656.5l117.966 117.966Q777.5 779 789.44 783q9.56 0 15.06-7t4.5-17l-44.721-317.915q-5.066-30.463-28.677-50.774Q711.992 370 684 370H276.287q-27.933 0-51.595 20.393Q201.03 410.787 197 441l-45.957 317.828Q150 769 155.271 776T172 783q5.5 0 14.5-6ZM686 606q12 0 21-9t9-21q0-12-9-21t-21-9q-12 0-21 9t-9 21q0 12 9 21t21 9Zm-81-123q11 0 20.5-9t9.5-21q0-12-9.5-21t-20.5-9q-12 0-21 9t-9 21q0 12 9 21t21 9ZM323 598h25v-71h72v-25h-72v-72h-25v72h-71v25h71v71Zm157-21Z"/></svg>