<svg xmlns="http://www.w3.org/2000/svg" height="48" viewBox="0 96 960 960" width="48"><path d="M481.5 574.5Zm-80 280-200-200q-9.5 41.5-8 101.75t9 94.25q29.599 9.818 94.55 11.409Q362 863.5 401.5 854.5Zm26.908-4q61.092-8.5 121.241-37.398 60.149-28.897 99.423-68.674 37.526-37.215 66.477-95.822Q744.5 590 755 525L531 301q-58 9-118.25 38.25T315.5 405Q279 441 250 500.75T205.5 627.5l222.908 223ZM388.5 684 372 667.5l200-200 16.5 16.5-200 200ZM759 498q9-45 8.5-104.75t-9.528-92.287q-31.594-9.01-96.283-10.986Q597 288 559 297l200 201ZM315.274 883.5q-45.164 0-84.608-4.561-39.444-4.56-46.516-10.661-5.543-6.778-8.596-41.72-3.054-34.941-3.054-75.058 0-111.637 32.319-205.975 32.318-94.338 91.527-153.582 58.644-59.19 153.109-91.567Q543.92 268 657.185 268q42.351 0 74.333 4T771 281.5q9 7.5 13 41.203 4 33.704 4 73.583 0 117.02-31.75 212.117t-89.506 153.605Q607 821.5 513.5 852.5q-93.5 31-198.226 31Z"/></svg>