<svg xmlns="http://www.w3.org/2000/svg" height="48" viewBox="0 96 960 960" width="48"><path d="M480 576Zm81.6 246q101.9 0 173.15-72.371T806 574.4q0-102.856-75.162-173.628Q655.676 330 551.219 330q-64.632 0-118.675 15.5Q378.5 361 329 394l130 49q35.911 13.515 54.456 43.841Q532 517.167 532 552.213q0 49.244-33.5 83.016Q465 669 417 669H165q-5 18.5-8 46.659T154 790q0 12 10 22t22 10h375.6ZM167 647h246.697Q455 647 482.5 619.289T510 552q0-29.672-16.237-53.405Q477.525 474.862 450 464l-141-57q-53.5 43-88.5 103.75T167 647Zm394.548 197H185.839q-22.339 0-38.089-15.75T132 790v-8q0-107.229 30.25-194.864 30.25-87.636 84.5-149.386T378.521 342q77.521-34 172.672-34 56.857 0 106.768 20.558 49.912 20.559 87.818 57.141 37.907 36.582 60.064 85.007Q828 519.13 828 574.988q0 55.859-21.27 104.662-21.27 48.803-57 85.576Q714 802 665.25 823q-48.75 21-103.702 21Z"/></svg>