<svg xmlns="http://www.w3.org/2000/svg" height="48" viewBox="0 96 960 960" width="48"><path d="M154 565h153q-4-52.708-27-103.454Q257 410.8 220 375q-29.5 40-47.25 88T154 565Zm499 0h153q-1-53-18.75-100.5T740 377q-41 39.4-61.963 87.364Q657.075 512.329 653 565ZM220 775q38-39.5 60.5-87.25T307 587H154q2.25 54.287 19.375 101.144Q190.5 735 220 775Zm520 0q29.5-40 47.125-87.356Q804.75 640.287 806 587H653q4 53 25 100.75T740 775ZM328 565h141V250q-69 2-129 31.5T235 360q41.5 41 65.75 94T328 565Zm163 0h141q3-58 26.378-111.574T725 360.206q-44-48.982-104.5-78.594Q560 252 491 250v315Zm-22 337V587H328q-3 59.5-26.472 111.321-23.472 51.82-66.528 91.267Q280 839 338.5 869.5 397 900 469 902Zm22 0q71-2 130.5-31.5T725 791.588q-43.056-39.447-66.528-92.267Q635 646.5 632 587H491v315Zm-11-325Zm.128 347q-72.128 0-135.64-27.487-63.512-27.487-110.75-74.5Q186.5 775 159.25 711.628 132 648.256 132 576.128t27.487-135.64q27.487-63.512 74.5-110.75Q281 282.5 344.372 255.25 407.744 228 479.872 228t135.64 27.487q63.512 27.487 110.75 74.5Q773.5 377 800.75 440.372 828 503.744 828 575.872t-27.487 135.64q-27.487 63.512-74.5 110.75Q679 869.5 615.628 896.75 552.256 924 480.128 924Z"/></svg>