<svg xmlns="http://www.w3.org/2000/svg" height="48" viewBox="0 96 960 960" width="48"><path d="M801 515q-23-113-108.303-187.25T491 250v81l310 184ZM287 675l182-106V250q-49.1 4.5-95.725 18.75Q326.65 283 287 313v362Zm-95 55 73-42V329q-55 45-83 110.5t-28 136.873q0 40.274 8.5 78.951Q171 694 192 730Zm155 146 316-182-183-107-278 161q26.5 43.5 62.966 76.803Q301.432 858.105 347 876Zm133 26q84.282 0 158.391-40.5T758 749l-73-43-310 179q24.25 10 51.333 13.5Q453.417 902 480 902Zm289-173q23-42.5 32-90t3-96L491 357v212l278 160ZM480 576Zm.302 348q-72.209 0-135.937-27.391-63.729-27.392-110.871-74.348-47.142-46.957-74.318-110.394Q132 648.43 132 576.302q0-72.209 27.391-135.937 27.392-63.729 74.348-110.871 46.957-47.142 110.394-74.318Q407.57 228 479.698 228q72.209 0 135.937 27.391 63.729 27.392 110.871 74.348 47.142 46.957 74.318 110.394Q828 503.57 828 575.698q0 72.208-27.391 135.937-27.392 63.729-74.348 110.871-46.957 47.142-110.394 74.318Q552.43 924 480.302 924Z"/></svg>