<svg xmlns="http://www.w3.org/2000/svg" height="48" viewBox="0 96 960 960" width="48"><path d="M189.034 869.5q-52.034 0-86.534-35.75Q68 798 68.5 748.916q0-6.376.5-14.324.5-7.949 2.5-16.092l84-336q12.181-43.376 48.471-72.188Q240.261 281.5 285 281.5h390q44.809 0 81.154 28.75Q792.5 339 805.5 382.5l84 336q2 8.5 3 16.001 1 7.5 1 15.501 0 49.004-35 84.251-35 35.247-87.608 35.247-34.738 0-63.75-18.348Q678.131 832.805 662.5 802l-29-59q-7.396-14.225-23.311-23.862Q594.274 709.5 575 709.5H385q-19.726 0-35.363 9.5T327.5 743l-29.304 59q-15.196 31-44.87 49.25-29.673 18.25-64.292 18.25Zm3.306-22q25.818 0 48.941-12.176Q264.405 823.149 278 794l28-58q11.963-22.727 32.985-35.614Q360.007 687.5 385 687.5h190q24.864 0 45.895 13.955Q641.926 715.409 655 737l28 57q13.671 29.149 36.69 41.324 23.019 12.176 48.913 12.176 38.897 0 70.252-26.538 31.354-26.539 31.645-70.105 0-5.938-1.5-12.398-1.5-6.459-1.5-14.959l-84-335q-10.286-36.885-39.843-60.943Q714.1 303.5 675 303.5H285q-38.977 0-69.245 23.934-30.268 23.935-38.255 61.066l-84 335q0 4.5-3 26.269 0 44.071 31.816 70.901t70.024 26.83ZM540 520.5q-10.5 0-17.5-7t-7-17.5q0-10.5 7-18t17.5-7.5q10.5 0 18 7.638 7.5 7.637 7.5 17.862 0 10.5-7.638 17.5-7.637 7-17.862 7Zm80-80q-10.5 0-17.5-7t-7-17.5q0-10.5 7-18t17.5-7.5q10.5 0 18 7.638 7.5 7.637 7.5 17.862 0 10.5-7.638 17.5-7.637 7-17.862 7Zm0 160q-10.5 0-17.5-7t-7-17.5q0-10.5 7-18t17.5-7.5q10.5 0 18 7.638 7.5 7.637 7.5 17.862 0 10.5-7.638 17.5-7.637 7-17.862 7Zm80-80q-10.5 0-17.5-7t-7-17.5q0-10.5 7-18t17.5-7.5q10.5 0 18 7.638 7.5 7.637 7.5 17.862 0 10.5-7.638 17.5-7.637 7-17.862 7Zm-360.143 57q-4.857 0-8.107-3.2-3.25-3.2-3.25-8.3v-58.5h-58.615q-4.785 0-8.085-3.221-3.3-3.222-3.3-8.279 0-4.857 3.2-9.179 3.2-4.321 8.3-4.321h58.5v-56.731q0-4.169 3.221-8.719 3.222-4.55 8.279-4.55 4.857 0 9.179 4.55 4.321 4.55 4.321 8.719V482.5h56.731q4.169 0 8.719 4.593t4.55 9.05q0 4.857-4.55 8.107-4.55 3.25-8.719 3.25H353.5v58.615q0 4.785-4.593 8.085-4.593 3.3-9.05 3.3Z"/></svg>