<svg xmlns="http://www.w3.org/2000/svg" height="48" viewBox="0 96 960 960" width="48"><path d="M207.5 369.5v-123l124 62-124 61Zm462 0v-123l124 62-124 61Zm-215.5-31v-123l123 62-123 61Zm-42.5 600q-67-2.5-120.138-10.953-53.138-8.453-89.75-21t-55.862-27.812Q126.5 863.469 126.5 846V526q0-19.479 26.054-36.781 26.055-17.302 72.969-29.709 46.915-12.406 111.961-20.208 65.047-7.802 142.532-7.802 77.484 0 142.523 7.802 65.04 7.802 111.949 20.208 46.909 12.407 73.461 29.709Q834.5 506.521 834.5 526v320q0 17.407-19.792 32.616-19.793 15.209-56.25 27.796Q722 919 668.75 927.5q-53.25 8.5-119.25 11v-162h-138v162Zm68.5-341q100 0 192.75-18T818 529q-24-32-111-53.75T480 453.5q-140 0-227 21.75T142 529q52.5 32.5 133.75 50.5t204.25 18ZM389.5 915V754.5h182V915q98-6 159.775-25.046 61.775-19.046 81.225-40.276V555.5Q742 590 659.25 604.75T480 619.5q-96.5 0-179.25-14.75T148.5 555.5v294.178q18.45 21.23 74.225 40.276Q278.5 909 389.5 915ZM480 734.5Z"/></svg>