<svg xmlns="http://www.w3.org/2000/svg" height="48" viewBox="0 96 960 960" width="48"><path d="M289.5 996V606.5H197q-30.58 0-50.54-19.944-19.96-19.943-19.96-50.5 0-30.556 19.96-51.056 19.96-20.5 50.54-20.5h92.5v-58H197q-30.58 0-50.54-19.944-19.96-19.943-19.96-50.5 0-30.556 19.96-51.056 19.96-20.5 50.54-20.5h92.5V156h22v108.5H403q30.32 0 50.91 20.574 20.59 20.573 20.59 50.87 0 30.556-20.59 50.556-20.59 20-50.91 20h-91.5v58H403q30.32 0 50.91 20.574 20.59 20.573 20.59 50.87 0 30.556-20.59 50.556-20.59 20-50.91 20h-91.5V996h-22ZM197 584.5h206q20 0 34.75-14.007t14.75-34.35q0-20.143-14.75-34.893T403 486.5H197q-20.4 0-34.45 14.75Q148.5 516 148.5 536.143t14.05 34.25Q176.6 584.5 197 584.5Zm0-200h206q20 0 34.75-14.007t14.75-34.35q0-20.143-14.75-34.893T403 286.5H197q-20.4 0-34.45 14.75Q148.5 316 148.5 336.143t14.05 34.25Q176.6 384.5 197 384.5ZM606.5 996v-22h83V630.673q-53.5-12.53-88.25-49.702Q566.5 543.8 566.5 496V156h268v340q0 46.964-35.25 84.436-35.25 37.473-87.75 50.401V974h83v22h-188Zm93.841-388.5q45.659 0 78.909-32.991Q812.5 541.519 812.5 496V383.5h-224v112.549q0 45.951 33.091 78.701 33.09 32.75 78.75 32.75ZM588.5 367.5h224V178h-224v189.5Zm-440 217v-98 98Zm0-200v-98 98Zm551.5-1Z"/></svg>