<svg xmlns="http://www.w3.org/2000/svg" height="48" viewBox="0 96 960 960" width="48"><path d="M738.443 380.5q9.938 0 18.998-8 9.059-8 9.059-18.25 0-11.85-8.912-20.3-8.913-8.45-19.088-8.45-11.325 0-19.662 8.606Q710.5 342.713 710.5 354q0 10.5 8.502 18.5 8.503 8 19.441 8Zm-164.478 0q10.635 0 19.585-8 8.95-8 8.95-18.25 0-11.85-8.854-20.3-8.853-8.45-19.637-8.45t-18.647 8.606Q547.5 342.713 547.5 354q0 10.5 7.915 18.5t18.55 8Zm-7.465 139h180q-5-23-31.525-38.5t-59-15.5q-34.475 0-60.475 15.309t-29 38.691ZM304.897 924q-78.397 0-132.647-54.812Q118 814.375 118 736.5v-224h372v223.947q0 77.886-53.624 132.72Q382.752 924 304.897 924Zm-.149-22Q372 902 420 853.358q48-48.641 48-116.203V534.5H140v202.492q0 67.508 48.129 116.258T304.748 902ZM656 638q-29.864 0-60.817-9.125T546 605l2-26.5q22.397 16 49.218 26.75Q624.038 616 656 616q68.388 0 116.444-46.967Q820.5 522.067 820.5 454.667V249.5H491v207h-22v-229h373.5v226.947q0 76.886-54.729 130.22Q733.042 638 656 638Zm-432.61 26q10.61 0 18.86-7.984t8.25-18.862q0-11.304-8.14-19.729Q234.22 609 223.491 609q-11.091 0-19.541 8.401-8.45 8.401-8.45 19.516 0 10.689 8.428 18.886Q212.355 664 223.39 664Zm163.224 0q10.986 0 19.186-7.984t8.2-18.862q0-11.304-8.213-19.729Q397.575 609 387.5 609q-11.65 0-20.075 8.329Q359 625.658 359 636.667q0 11.158 8.314 19.245 8.314 8.088 19.3 8.088Zm-81.589 141.5q34.67 0 60.823-15.27Q392 774.961 395.5 751.5h-180q3 23.5 28.83 38.75t60.695 15.25Zm.475-89Zm350.5-283Z"/></svg>