<svg xmlns="http://www.w3.org/2000/svg" height="48" viewBox="0 96 960 960" width="48"><path d="M280 764q-78.333 0-133.167-54.765Q92 654.471 92 576.235 92 498 146.833 443 201.667 388 280 388h400q78.333 0 133.167 54.765Q868 497.529 868 575.765 868 654 813.167 709 758.333 764 680 764H280Zm.15-22h399.733q69.671 0 117.894-48.215Q846 645.571 846 576.035q0-69.535-48.311-117.785T679.707 410H279.974q-69.199 0-117.587 48.215Q114 506.429 114 575.965q0 69.535 48.475 117.785Q210.951 742 280.15 742Zm399.556-78q37.059 0 63.176-25.324Q769 613.353 769 576.177 769 539 743.059 513.5t-63-25.5Q643 488 617.5 513.323q-25.5 25.324-25.5 62.5Q592 613 617.323 638.5q25.324 25.5 62.383 25.5ZM480 576Z"/></svg>