<svg xmlns="http://www.w3.org/2000/svg" height="48" viewBox="0 96 960 960" width="48"><path d="M280 764q-78.333 0-133.167-54.765Q92 654.471 92 576.235 92 498 146.833 443 201.667 388 280 388h400q78.333 0 133.167 54.765Q868 497.529 868 575.765 868 654 813.167 709 758.333 764 680 764H280Zm.293-22h399.733q69.199 0 117.586-48.215Q846 645.571 846 576.035q0-69.535-48.475-117.785Q749.049 410 679.85 410H280.117q-69.671 0-117.894 48.215Q114 506.429 114 575.965q0 69.535 48.311 117.785T280.293 742Zm-.352-78Q317 664 342.5 638.676q25.5-25.323 25.5-62.499Q368 539 342.676 513.5 317.353 488 280.294 488t-63.176 25.323Q191 538.647 191 575.823 191 613 216.941 638.5t63 25.5ZM480 576Z"/></svg>