<svg xmlns="http://www.w3.org/2000/svg" height="48" viewBox="0 96 960 960" width="48"><path d="M212 775.962V412q0-65.354 66.25-84.677Q344.5 308 467.429 306.952L497 245H284v-25h392v25H523l-30 62q113.5 1 184.25 21.064Q748 348.127 748 412v363.962q0 45.092-31.473 76.565T640 884l60 60v20h-16.5l-80-80h-246l-80 80H260v-20l60-60q-45.054 0-76.527-31.473T212 775.962ZM642 652H234h492-84ZM481 795q16 0 27-11.5t11-27.5q0-16-11-27t-27-11q-16 0-27.5 11T442 756q0 16 11.5 27.5T481 795Zm.452-394H728 230h251.452ZM234 630h492V423H234v207Zm84 231h324q35 0 59.5-25t24.5-60V652H234v123.53Q234 811 258.5 836t59.5 25Zm163.452-532Q364 329 300.75 345.5T230 401h498q-8.5-36-69.75-54t-176.798-18Z"/></svg>