<svg xmlns="http://www.w3.org/2000/svg" height="48" viewBox="0 96 960 960" width="48"><path d="m367 930-63.845-109.325L179 795.844 191 670l-81-94 81-94.015L179 357l124.273-25.8L367 222l113 49 113-49 64.845 109.325L782 357.156 769 482l81 94-81 94.015L782 796l-124.273 24.8L593 930l-113-49-113 49Zm10-29 103-42 104 42 61-97 111.897-26.351-10.173-115.514L823 576l-76.276-86.162 10.173-116.514L645 348l-61-97-104 42-104-42-61 97-111.897 25.324 10.173 116.514L137 576l76.276 86.135-10.173 115.541L315 804l62 97Zm103-325Zm-42 103 190-189-17-15-172.656 173L349 557l-17 17 106 105Z"/></svg>