<svg xmlns="http://www.w3.org/2000/svg" height="48" viewBox="0 96 960 960" width="48"><path d="M480.014 924q-52.514 0-102.501-16.513Q327.526 890.975 278 859l16-16q41.333 29 89.274 44 47.942 15 96.619 15 137.146 0 231.627-94.5Q806 713 806 576t-94.5-231.5Q617 250 480 250t-231.5 94.5Q154 439 154 576h-22q0-71.5 27.618-135.256 27.619-63.756 74.4-110.737 46.782-46.981 110.329-74.494Q407.894 228 479.947 228t135.472 27.329q63.42 27.329 110.795 74.6 47.376 47.271 74.581 110.689Q828 504.036 828 575.942q0 72.058-27.321 135.609-27.322 63.55-74.58 110.842-47.258 47.291-110.746 74.449Q551.866 924 480.014 924ZM176 747l141-140 122 103 225-225v152h18V456H501v18h152L439 688 317 585 169.5 732.5q.5 5 2 7.75T176 747Zm304-171Z"/></svg>