<svg xmlns="http://www.w3.org/2000/svg" height="48" viewBox="0 96 960 960" width="48"><path d="M438 585.5 598.5 426 582 409.5l-144 145-59-59-14.5 16.5 73.5 73.5Zm42 339q128.271-110.571 200.385-226.318Q752.5 582.435 752.5 504.05q0-123.05-78.213-201.8-78.214-78.75-194.25-78.75-116.037 0-193.787 78.782T208.5 504.223q0 78.456 72.115 194.081Q352.729 813.929 480 924.5Zm0 31q-148.5-133-221-247.701-72.5-114.702-72.5-203.699 0-138.286 88.818-220.443 88.818-82.157 204.75-82.157t205.182 82.238q89.25 82.237 89.25 220.295 0 88.967-73 203.717Q628.5 822.5 480 955.5Zm0-451.5Z"/></svg>